<mxfile host="app.diagrams.net" modified="2021-05-14T12:53:17.284Z" agent="5.0 (Windows NT 10.0; Win64; x64) AppleWebKit/537.36 (KHTML, like Gecko) Chrome/90.0.4430.212 Safari/537.36" etag="ucj5NjckWR4EVij7qSUA" version="14.6.13" type="github">
  <diagram id="C5RBs43oDa-KdzZeNtuy" name="Page-1">
    <mxGraphModel dx="782" dy="506" grid="1" gridSize="10" guides="1" tooltips="1" connect="1" arrows="1" fold="1" page="1" pageScale="1" pageWidth="827" pageHeight="1169" math="0" shadow="0">
      <root>
        <mxCell id="WIyWlLk6GJQsqaUBKTNV-0" />
        <mxCell id="WIyWlLk6GJQsqaUBKTNV-1" parent="WIyWlLk6GJQsqaUBKTNV-0" />
        <mxCell id="WIyWlLk6GJQsqaUBKTNV-2" value="" style="rounded=0;html=1;jettySize=auto;orthogonalLoop=1;fontSize=11;endArrow=block;endFill=0;endSize=8;strokeWidth=1;shadow=0;labelBackgroundColor=none;edgeStyle=orthogonalEdgeStyle;" parent="WIyWlLk6GJQsqaUBKTNV-1" source="WIyWlLk6GJQsqaUBKTNV-3" target="WIyWlLk6GJQsqaUBKTNV-6" edge="1">
          <mxGeometry relative="1" as="geometry" />
        </mxCell>
        <mxCell id="WIyWlLk6GJQsqaUBKTNV-3" value="SOMA_NUMEROS" style="rounded=1;whiteSpace=wrap;html=1;fontSize=12;glass=0;strokeWidth=1;shadow=0;" parent="WIyWlLk6GJQsqaUBKTNV-1" vertex="1">
          <mxGeometry x="372.5" y="130" width="120" height="40" as="geometry" />
        </mxCell>
        <mxCell id="6srrOqUBoE-tklU6opKK-3" style="edgeStyle=orthogonalEdgeStyle;rounded=0;orthogonalLoop=1;jettySize=auto;html=1;entryX=0.5;entryY=0;entryDx=0;entryDy=0;" edge="1" parent="WIyWlLk6GJQsqaUBKTNV-1" source="WIyWlLk6GJQsqaUBKTNV-6" target="6srrOqUBoE-tklU6opKK-2">
          <mxGeometry relative="1" as="geometry" />
        </mxCell>
        <mxCell id="WIyWlLk6GJQsqaUBKTNV-6" value="&lt;b&gt;PARA &lt;/b&gt;CONTADOR &lt;b&gt;DE &lt;/b&gt;1 &lt;b&gt;ATE &lt;/b&gt;100 &lt;b&gt;FAÃ‡A &lt;i&gt;PASSO &lt;/i&gt;&lt;/b&gt;1" style="rhombus;whiteSpace=wrap;html=1;shadow=0;fontFamily=Helvetica;fontSize=12;align=center;strokeWidth=1;spacing=6;spacingTop=-4;" parent="WIyWlLk6GJQsqaUBKTNV-1" vertex="1">
          <mxGeometry x="205" y="200" width="455" height="70" as="geometry" />
        </mxCell>
        <mxCell id="6srrOqUBoE-tklU6opKK-1" style="edgeStyle=orthogonalEdgeStyle;rounded=0;orthogonalLoop=1;jettySize=auto;html=1;entryX=0.5;entryY=0;entryDx=0;entryDy=0;" edge="1" parent="WIyWlLk6GJQsqaUBKTNV-1" source="6srrOqUBoE-tklU6opKK-0" target="WIyWlLk6GJQsqaUBKTNV-3">
          <mxGeometry relative="1" as="geometry" />
        </mxCell>
        <mxCell id="6srrOqUBoE-tklU6opKK-0" value="INICIO" style="ellipse;whiteSpace=wrap;html=1;" vertex="1" parent="WIyWlLk6GJQsqaUBKTNV-1">
          <mxGeometry x="372.5" y="60" width="120" height="40" as="geometry" />
        </mxCell>
        <mxCell id="6srrOqUBoE-tklU6opKK-4" style="edgeStyle=orthogonalEdgeStyle;rounded=0;orthogonalLoop=1;jettySize=auto;html=1;entryX=0;entryY=0.5;entryDx=0;entryDy=0;exitX=0;exitY=0.5;exitDx=0;exitDy=0;" edge="1" parent="WIyWlLk6GJQsqaUBKTNV-1" source="6srrOqUBoE-tklU6opKK-2" target="WIyWlLk6GJQsqaUBKTNV-6">
          <mxGeometry relative="1" as="geometry">
            <mxPoint x="90" y="230" as="targetPoint" />
            <Array as="points">
              <mxPoint x="100" y="350" />
              <mxPoint x="100" y="235" />
            </Array>
          </mxGeometry>
        </mxCell>
        <mxCell id="6srrOqUBoE-tklU6opKK-9" style="edgeStyle=orthogonalEdgeStyle;rounded=0;orthogonalLoop=1;jettySize=auto;html=1;" edge="1" parent="WIyWlLk6GJQsqaUBKTNV-1" source="6srrOqUBoE-tklU6opKK-2" target="6srrOqUBoE-tklU6opKK-7">
          <mxGeometry relative="1" as="geometry" />
        </mxCell>
        <mxCell id="6srrOqUBoE-tklU6opKK-2" value="SOMA_NUMEROS = SOMA_NUMEROS + CONTADOR" style="rounded=1;whiteSpace=wrap;html=1;" vertex="1" parent="WIyWlLk6GJQsqaUBKTNV-1">
          <mxGeometry x="272.5" y="320" width="320" height="50" as="geometry" />
        </mxCell>
        <mxCell id="6srrOqUBoE-tklU6opKK-11" style="edgeStyle=orthogonalEdgeStyle;rounded=0;orthogonalLoop=1;jettySize=auto;html=1;entryX=0.5;entryY=0;entryDx=0;entryDy=0;" edge="1" parent="WIyWlLk6GJQsqaUBKTNV-1" source="6srrOqUBoE-tklU6opKK-7" target="6srrOqUBoE-tklU6opKK-8">
          <mxGeometry relative="1" as="geometry" />
        </mxCell>
        <mxCell id="6srrOqUBoE-tklU6opKK-7" value="SOMA_NUMEROS" style="shape=document;whiteSpace=wrap;html=1;boundedLbl=1;" vertex="1" parent="WIyWlLk6GJQsqaUBKTNV-1">
          <mxGeometry x="373" y="410" width="120" height="70" as="geometry" />
        </mxCell>
        <mxCell id="6srrOqUBoE-tklU6opKK-8" value="FIM" style="ellipse;whiteSpace=wrap;html=1;" vertex="1" parent="WIyWlLk6GJQsqaUBKTNV-1">
          <mxGeometry x="373" y="510" width="120" height="40" as="geometry" />
        </mxCell>
      </root>
    </mxGraphModel>
  </diagram>
</mxfile>
